<?xml version="1.0" encoding="UTF-8" standalone="no"?>
<!DOCTYPE svg PUBLIC "-//W3C//DTD SVG 1.1//EN"
 "http://www.w3.org/Graphics/SVG/1.1/DTD/svg11.dtd">
<!-- Generated by graphviz version 2.40.1 (20161225.0304)
 -->
<!-- Title: dependencies Pages: 1 -->
<svg width="1157pt" height="284pt"
 viewBox="0.00 0.00 1157.00 284.00" xmlns="http://www.w3.org/2000/svg" xmlns:xlink="http://www.w3.org/1999/xlink">
<g id="graph0" class="graph" transform="scale(1 1) rotate(0) translate(4 280)">
<title>dependencies</title>
<polygon fill="#ffffff" stroke="transparent" points="-4,4 -4,-280 1153,-280 1153,4 -4,4"/>
<text text-anchor="start" x="553.5091" y="-42.4" font-family="sans-serif" font-weight="bold" font-size="14.00" fill="#000000">Legend</text>
<polygon fill="#ffffb3" stroke="transparent" points="340.5,-10 340.5,-30 360.5,-30 360.5,-10 340.5,-10"/>
<text text-anchor="start" x="364.129" y="-15.4" font-family="sans-serif" font-size="14.00" fill="#000000"> &#160;Declarations</text>
<polygon fill="#8dd3c7" stroke="transparent" points="453.5,-10 453.5,-30 473.5,-30 473.5,-10 453.5,-10"/>
<text text-anchor="start" x="477.2251" y="-15.4" font-family="sans-serif" font-size="14.00" fill="#000000"> &#160;Module</text>
<polygon fill="#80b1d3" stroke="transparent" points="539.5,-10 539.5,-30 559.5,-30 559.5,-10 539.5,-10"/>
<text text-anchor="start" x="563.2812" y="-15.4" font-family="sans-serif" font-size="14.00" fill="#000000"> &#160;Bootstrap</text>
<polygon fill="#fdb462" stroke="transparent" points="636.5,-10 636.5,-30 656.5,-30 656.5,-10 636.5,-10"/>
<text text-anchor="start" x="660.1732" y="-15.4" font-family="sans-serif" font-size="14.00" fill="#000000"> &#160;Providers</text>
<polygon fill="#fb8072" stroke="transparent" points="732.5,-10 732.5,-30 752.5,-30 752.5,-10 732.5,-10"/>
<text text-anchor="start" x="756.2258" y="-15.4" font-family="sans-serif" font-size="14.00" fill="#000000"> &#160;Exports</text>
<g id="clust1" class="cluster">
<title>cluster_AppModule</title>
<polygon fill="none" stroke="#000000" stroke-dasharray="1,5" points="8,-70 8,-268 1141,-268 1141,-70 8,-70"/>
</g>
<g id="clust2" class="cluster">
<title>cluster_AppModule_declarations</title>
<polygon fill="none" stroke="#000000" points="166,-78 166,-130 1133,-130 1133,-78 166,-78"/>
</g>
<g id="clust12" class="cluster">
<title>cluster_AppModule_bootstrap</title>
<polygon fill="none" stroke="#000000" points="522,-208 522,-260 646,-260 646,-208 522,-208"/>
</g>
<g id="clust13" class="cluster">
<title>cluster_AppModule_providers</title>
<polygon fill="none" stroke="#000000" points="16,-78 16,-130 158,-130 158,-78 16,-78"/>
</g>
<!-- AddCursoComponent -->
<g id="node1" class="node">
<title>AddCursoComponent</title>
<polygon fill="#ffffb3" stroke="#000000" points="1125.3809,-122 986.6191,-122 986.6191,-86 1125.3809,-86 1125.3809,-122"/>
<text text-anchor="middle" x="1056" y="-99.8" font-family="Times,serif" font-size="14.00" fill="#000000">AddCursoComponent</text>
</g>
<!-- AppModule -->
<g id="node8" class="node">
<title>AppModule</title>
<polygon fill="#8dd3c7" stroke="#000000" points="625.6571,-187 622.6571,-191 601.6571,-191 598.6571,-187 542.3429,-187 542.3429,-151 625.6571,-151 625.6571,-187"/>
<text text-anchor="middle" x="584" y="-164.8" font-family="Times,serif" font-size="14.00" fill="#000000">AppModule</text>
</g>
<!-- AddCursoComponent&#45;&gt;AppModule -->
<g id="edge1" class="edge">
<title>AddCursoComponent&#45;&gt;AppModule</title>
<path fill="none" stroke="#000000" d="M1056,-122.2921C1056,-144.2057 1056,-178 1056,-178 1056,-178 635.8869,-178 635.8869,-178"/>
<polygon fill="#000000" stroke="#000000" points="635.8869,-174.5001 625.8869,-178 635.8868,-181.5001 635.8869,-174.5001"/>
</g>
<!-- AppComponent -->
<g id="node2" class="node">
<title>AppComponent</title>
<polygon fill="#ffffb3" stroke="#000000" points="968.9399,-122 863.0601,-122 863.0601,-86 968.9399,-86 968.9399,-122"/>
<text text-anchor="middle" x="916" y="-99.8" font-family="Times,serif" font-size="14.00" fill="#000000">AppComponent</text>
</g>
<!-- AppComponent&#45;&gt;AppModule -->
<g id="edge2" class="edge">
<title>AppComponent&#45;&gt;AppModule</title>
<path fill="none" stroke="#000000" d="M916,-122.1061C916,-141.3391 916,-169 916,-169 916,-169 635.7119,-169 635.7119,-169"/>
<polygon fill="#000000" stroke="#000000" points="635.7119,-165.5001 625.7119,-169 635.7118,-172.5001 635.7119,-165.5001"/>
</g>
<!-- CursosComponent -->
<g id="node3" class="node">
<title>CursosComponent</title>
<polygon fill="#ffffb3" stroke="#000000" points="845.219,-122 724.781,-122 724.781,-86 845.219,-86 845.219,-122"/>
<text text-anchor="middle" x="785" y="-99.8" font-family="Times,serif" font-size="14.00" fill="#000000">CursosComponent</text>
</g>
<!-- CursosComponent&#45;&gt;AppModule -->
<g id="edge3" class="edge">
<title>CursosComponent&#45;&gt;AppModule</title>
<path fill="none" stroke="#000000" d="M785,-122.027C785,-138.3976 785,-160 785,-160 785,-160 636.1362,-160 636.1362,-160"/>
<polygon fill="#000000" stroke="#000000" points="636.1362,-156.5001 626.1362,-160 636.1362,-163.5001 636.1362,-156.5001"/>
</g>
<!-- InicioComponent -->
<g id="node4" class="node">
<title>InicioComponent</title>
<polygon fill="#ffffb3" stroke="#000000" points="706.9888,-122 593.0112,-122 593.0112,-86 706.9888,-86 706.9888,-122"/>
<text text-anchor="middle" x="650" y="-99.8" font-family="Times,serif" font-size="14.00" fill="#000000">InicioComponent</text>
</g>
<!-- InicioComponent&#45;&gt;AppModule -->
<g id="edge4" class="edge">
<title>InicioComponent&#45;&gt;AppModule</title>
<path fill="none" stroke="#000000" d="M609.4169,-122.1061C609.4169,-122.1061 609.4169,-140.991 609.4169,-140.991"/>
<polygon fill="#000000" stroke="#000000" points="605.917,-140.9909 609.4169,-150.991 612.917,-140.991 605.917,-140.9909"/>
</g>
<!-- InisesComponent -->
<g id="node5" class="node">
<title>InisesComponent</title>
<polygon fill="#ffffb3" stroke="#000000" points="574.9874,-122 461.0126,-122 461.0126,-86 574.9874,-86 574.9874,-122"/>
<text text-anchor="middle" x="518" y="-99.8" font-family="Times,serif" font-size="14.00" fill="#000000">InisesComponent</text>
</g>
<!-- InisesComponent&#45;&gt;AppModule -->
<g id="edge5" class="edge">
<title>InisesComponent&#45;&gt;AppModule</title>
<path fill="none" stroke="#000000" d="M558.5828,-122.1061C558.5828,-122.1061 558.5828,-140.991 558.5828,-140.991"/>
<polygon fill="#000000" stroke="#000000" points="555.0828,-140.9909 558.5828,-150.991 562.0828,-140.991 555.0828,-140.9909"/>
</g>
<!-- NavbarComponent -->
<g id="node6" class="node">
<title>NavbarComponent</title>
<polygon fill="#ffffb3" stroke="#000000" points="443.0297,-122 320.9703,-122 320.9703,-86 443.0297,-86 443.0297,-122"/>
<text text-anchor="middle" x="382" y="-99.8" font-family="Times,serif" font-size="14.00" fill="#000000">NavbarComponent</text>
</g>
<!-- NavbarComponent&#45;&gt;AppModule -->
<g id="edge6" class="edge">
<title>NavbarComponent&#45;&gt;AppModule</title>
<path fill="none" stroke="#000000" d="M382,-122.027C382,-138.3976 382,-160 382,-160 382,-160 532.1455,-160 532.1455,-160"/>
<polygon fill="#000000" stroke="#000000" points="532.1455,-163.5001 542.1455,-160 532.1454,-156.5001 532.1455,-163.5001"/>
</g>
<!-- RegistroComponent -->
<g id="node7" class="node">
<title>RegistroComponent</title>
<polygon fill="#ffffb3" stroke="#000000" points="302.2702,-122 173.7298,-122 173.7298,-86 302.2702,-86 302.2702,-122"/>
<text text-anchor="middle" x="238" y="-99.8" font-family="Times,serif" font-size="14.00" fill="#000000">RegistroComponent</text>
</g>
<!-- RegistroComponent&#45;&gt;AppModule -->
<g id="edge7" class="edge">
<title>RegistroComponent&#45;&gt;AppModule</title>
<path fill="none" stroke="#000000" d="M238,-122.1061C238,-141.3391 238,-169 238,-169 238,-169 532.2643,-169 532.2643,-169"/>
<polygon fill="#000000" stroke="#000000" points="532.2644,-172.5001 542.2643,-169 532.2643,-165.5001 532.2644,-172.5001"/>
</g>
<!-- AppComponent  -->
<g id="node9" class="node">
<title>AppComponent </title>
<polygon fill="#80b1d3" stroke="#000000" points="638.439,-252 529.561,-252 529.561,-216 638.439,-216 638.439,-252"/>
<text text-anchor="middle" x="584" y="-229.8" font-family="Times,serif" font-size="14.00" fill="#000000">AppComponent </text>
</g>
<!-- AppModule&#45;&gt;AppComponent  -->
<g id="edge8" class="edge">
<title>AppModule&#45;&gt;AppComponent </title>
<path fill="none" stroke="#000000" stroke-dasharray="1,5" d="M584,-187.1061C584,-187.1061 584,-205.991 584,-205.991"/>
<polygon fill="#000000" stroke="#000000" points="580.5001,-205.9909 584,-215.991 587.5001,-205.991 580.5001,-205.9909"/>
</g>
<!-- CursoService -->
<g id="node10" class="node">
<title>CursoService</title>
<ellipse fill="#fdb462" stroke="#000000" cx="87" cy="-104" rx="63.1189" ry="18"/>
<text text-anchor="middle" x="87" y="-99.8" font-family="Times,serif" font-size="14.00" fill="#000000">CursoService</text>
</g>
<!-- CursoService&#45;&gt;AppModule -->
<g id="edge9" class="edge">
<title>CursoService&#45;&gt;AppModule</title>
<path fill="none" stroke="#000000" d="M87,-122.2921C87,-144.2057 87,-178 87,-178 87,-178 532.0544,-178 532.0544,-178"/>
<polygon fill="#000000" stroke="#000000" points="532.0544,-181.5001 542.0544,-178 532.0544,-174.5001 532.0544,-181.5001"/>
</g>
</g>
</svg>
